<svg xmlns="http://www.w3.org/2000/svg" width="640" height="640" viewBox="0 0 640 640">
  <defs>
    <radialGradient id="bg" cx="46%" cy="38%" r="78%">
      <stop offset="0%" stop-color="#1c0610"/>
      <stop offset="50%" stop-color="#0a0308"/>
      <stop offset="100%" stop-color="#020102"/>
    </radialGradient>
    <linearGradient id="arc" x1="0" y1="1" x2="1" y2="0">
      <stop offset="0%" stop-color="#e10600" stop-opacity="0.85"/>
      <stop offset="100%" stop-color="#ff2a2a" stop-opacity="0.25"/>
    </linearGradient>
  </defs>
  <rect width="640" height="640" fill="url(#bg)"/>
  <circle cx="320" cy="250" r="150" fill="none" stroke="#e10600" stroke-width="2" opacity="0.22"/>
  <circle cx="320" cy="250" r="78" fill="none" stroke="#ff2a2a" stroke-width="3" opacity="0.28"/>
  <circle cx="320" cy="250" r="22" fill="#e10600" opacity="0.55"/>
  <path d="M120 360 Q220 280 320 360 T520 350" fill="none" stroke="url(#arc)" stroke-width="12" stroke-linecap="round"/>
  <path d="M150 420 Q250 340 350 420 T550 410" fill="none" stroke="#e10600" stroke-width="4" opacity="0.28" stroke-linecap="round"/>
  <rect x="150" y="500" width="16" height="70" rx="3" fill="#e10600" opacity="0.55"/>
  <rect x="190" y="470" width="16" height="100" rx="3" fill="#ff2a2a" opacity="0.4"/>
  <rect x="230" y="510" width="16" height="60" rx="3" fill="#e10600" opacity="0.35"/>
  <rect x="270" y="450" width="16" height="120" rx="3" fill="#e10600" opacity="0.5"/>
  <rect x="310" y="490" width="16" height="80" rx="3" fill="#ff2a2a" opacity="0.42"/>
  <rect x="350" y="430" width="16" height="140" rx="3" fill="#e10600" opacity="0.55"/>
  <rect x="390" y="480" width="16" height="90" rx="3" fill="#e10600" opacity="0.32"/>
  <rect x="430" y="460" width="16" height="110" rx="3" fill="#ff2a2a" opacity="0.38"/>
  <rect x="470" y="520" width="16" height="50" rx="3" fill="#e10600" opacity="0.3"/>
</svg>
